<?xml version="1.0" encoding="UTF-8" standalone="no"?>
<!-- Created with Inkscape (http://www.inkscape.org/) -->

<svg
   xmlns:dc="http://purl.org/dc/elements/1.1/"
   xmlns:cc="http://creativecommons.org/ns#"
   xmlns:rdf="http://www.w3.org/1999/02/22-rdf-syntax-ns#"
   xmlns:svg="http://www.w3.org/2000/svg"
   xmlns="http://www.w3.org/2000/svg"
   xmlns:sodipodi="http://sodipodi.sourceforge.net/DTD/sodipodi-0.dtd"
   xmlns:inkscape="http://www.inkscape.org/namespaces/inkscape"
   inkscape:version="0.91pre4 r13712"
   version="1.1"
   id="svg2"
   viewBox="0 0 350 120"
   height="120"
   width="350"
   sodipodi:docname="energy3.svg">
  <sodipodi:namedview
     inkscape:window-maximized="1"
     inkscape:window-y="-8"
     inkscape:window-x="-8"
     inkscape:window-height="1018"
     inkscape:window-width="1920"
     showgrid="false"
     inkscape:current-layer="layer1"
     inkscape:document-units="px"
     inkscape:cy="269.3875"
     inkscape:cx="119.21138"
     inkscape:zoom="1.4"
     inkscape:pageshadow="2"
     inkscape:pageopacity="0.0"
     borderopacity="1.0"
     bordercolor="#666666"
     pagecolor="#ffffff"
     id="base"
     units="px" />
  <defs
     id="defs4" />
  <metadata
     id="metadata7">
    <rdf:RDF>
      <cc:Work
         rdf:about="">
        <dc:format>image/svg+xml</dc:format>
        <dc:type
           rdf:resource="http://purl.org/dc/dcmitype/StillImage" />
        <dc:title></dc:title>
      </cc:Work>
    </rdf:RDF>
  </metadata>
  <g
     inkscape:label="Layer 1"
     inkscape:groupmode="layer"
     id="layer1"
     transform="translate(0,-932.36216)">
    <flowRoot
       style="font-style:normal;font-weight:normal;font-size:27.5px;line-height:125%;font-family:sans-serif;letter-spacing:0px;word-spacing:0px;fill:#000000;fill-opacity:1;stroke:none;stroke-width:1px;stroke-linecap:butt;stroke-linejoin:miter;stroke-opacity:1"
       id="flowRoot4303"
       xml:space="preserve"><flowRegion
         id="flowRegion4305"><rect
           y="765.2193"
           x="354.28571"
           height="82.14286"
           width="157.14285"
           id="rect4307" /></flowRegion><flowPara
         id="flowPara4309" /></flowRoot>    <text
       xml:space="preserve"
       style="font-style:normal;font-weight:normal;font-size:27.5px;line-height:125%;font-family:sans-serif;letter-spacing:0px;word-spacing:0px;fill:#000000;fill-opacity:1;stroke:none;stroke-width:1px;stroke-linecap:butt;stroke-linejoin:miter;stroke-opacity:1"
       x="31.990732"
       y="963.37006"
       id="text4184-2"
       sodipodi:linespacing="125%"><tspan
         sodipodi:role="line"
         id="tspan4186-8"
         x="31.990732"
         y="963.37006">功耗</tspan></text>
  </g>
  <path
     style="fill:none;fill-rule:evenodd;stroke:#000000;stroke-width:2;stroke-linecap:round;stroke-linejoin:miter;stroke-miterlimit:4;stroke-dasharray:none;stroke-opacity:1"
     d="M 95.474444,109.46812 293.47459,109.3361"
     id="path4136-5-3"
     inkscape:connector-curvature="0" />
  <path
     style="fill:none;fill-rule:evenodd;stroke:#000000;stroke-width:2;stroke-linecap:round;stroke-linejoin:miter;stroke-miterlimit:4;stroke-dasharray:none;stroke-opacity:1"
     d="m 293.15318,109.05862 -3.75,-2.23214"
     id="path4142-5-9"
     inkscape:connector-curvature="0"
     inkscape:transform-center-x="-0.35714291"
     inkscape:transform-center-y="0.17857143" />
  <path
     style="fill:none;fill-rule:evenodd;stroke:#000000;stroke-width:2;stroke-linecap:round;stroke-linejoin:miter;stroke-miterlimit:4;stroke-dasharray:none;stroke-opacity:1"
     d="m 293.48371,109.7536 -3.90337,1.95159"
     id="path4142-0-0-5"
     inkscape:connector-curvature="0"
     inkscape:transform-center-x="-0.34311791"
     inkscape:transform-center-y="-0.20422357" />
  <path
     style="fill:none;fill-rule:evenodd;stroke:#000000;stroke-width:1.93998599;stroke-linecap:round;stroke-linejoin:miter;stroke-miterlimit:4;stroke-dasharray:none;stroke-opacity:1"
     d="M 95.477714,109.32183 95.314954,4.8259641"
     id="path4136-2-0-9"
     inkscape:connector-curvature="0" />
  <path
     style="fill:none;fill-rule:evenodd;stroke:#000000;stroke-width:2;stroke-linecap:round;stroke-linejoin:miter;stroke-miterlimit:4;stroke-dasharray:none;stroke-opacity:1"
     d="m 94.805274,4.6228541 -2.23291,3.74954"
     id="path4142-2-9-5"
     inkscape:connector-curvature="0"
     inkscape:transform-center-x="-0.17864292"
     inkscape:transform-center-y="-0.35710681" />
  <path
     style="fill:none;fill-rule:evenodd;stroke:#000000;stroke-width:2;stroke-linecap:round;stroke-linejoin:miter;stroke-miterlimit:4;stroke-dasharray:none;stroke-opacity:1"
     d="m 95.500324,4.2924641 1.95079,3.90378"
     id="path4142-0-5-0-9"
     inkscape:connector-curvature="0"
     inkscape:transform-center-x="0.20415209"
     inkscape:transform-center-y="-0.34315857" />
  <text
     xml:space="preserve"
     style="font-style:normal;font-weight:normal;font-size:27.5px;line-height:125%;font-family:sans-serif;letter-spacing:0px;word-spacing:0px;fill:#000000;fill-opacity:1;stroke:none;stroke-width:1px;stroke-linecap:butt;stroke-linejoin:miter;stroke-opacity:1"
     x="228.33824"
     y="102.45359"
     id="text4180-6-0"
     sodipodi:linespacing="125%"><tspan
       sodipodi:role="line"
       id="tspan4182-0-6"
       x="228.33824"
       y="102.45359">完成时间</tspan></text>
  <path
     inkscape:connector-curvature="0"
     id="path4286-4-3"
     d="m 95.503894,97.153534 99.995756,0.0565"
     style="fill:none;fill-rule:evenodd;stroke:#000000;stroke-width:1.97941089;stroke-linecap:butt;stroke-linejoin:miter;stroke-miterlimit:4;stroke-dasharray:none;stroke-opacity:1" />
  <path
     inkscape:connector-curvature="0"
     id="path4286-3-1-2"
     d="M 195.77528,109.32904 195.00517,96.860084"
     style="fill:none;fill-rule:evenodd;stroke:#000000;stroke-width:1.48320591;stroke-linecap:butt;stroke-linejoin:miter;stroke-miterlimit:4;stroke-dasharray:none;stroke-opacity:1" />
  <path
     inkscape:connector-curvature="0"
     id="path5076"
     d="m 97.088244,103.47615 0,-4.545686 48.487316,0 48.48732,0 0,4.545686 0,4.54568 -48.48732,0 -48.487316,0 0,-4.54568 z"
     style="opacity:0.2;fill:#000000;fill-opacity:1;stroke:#000000;stroke-width:2.02030516;stroke-linecap:round;stroke-linejoin:miter;stroke-miterlimit:4;stroke-dasharray:none;stroke-dashoffset:0;stroke-opacity:1" />
  <text
     transform="scale(0.90328901,1.1070654)"
     sodipodi:linespacing="125%"
     id="text5314-17"
     y="80.686615"
     x="137.28271"
     style="font-style:normal;font-weight:normal;font-size:15.1075449px;line-height:125%;font-family:sans-serif;letter-spacing:0px;word-spacing:0px;fill:#000000;fill-opacity:1;stroke:none;stroke-width:1px;stroke-linecap:butt;stroke-linejoin:miter;stroke-opacity:1"
     xml:space="preserve"><tspan
       y="80.686615"
       x="137.28271"
       id="tspan5316-0"
       sodipodi:role="line">能量(E)</tspan></text>
  <g
     id="g5492"
     transform="matrix(0.26602112,0,0,0.36895517,-67.994473,-75.976993)">
    <g
       word-spacing="normal"
       letter-spacing="normal"
       font-size-adjust="none"
       font-stretch="normal"
       font-weight="normal"
       font-variant="normal"
       font-style="normal"
       stroke-miterlimit="10.433"
       xml:space="preserve"
       transform="matrix(1.0629921,0,0,-1.0629921,-186.02362,789.27165)"
       id="g5494"
       style="font-style:normal;font-variant:normal;font-weight:normal;font-stretch:normal;letter-spacing:normal;word-spacing:normal;text-anchor:start;fill:none;fill-opacity:1;fill-rule:evenodd;stroke:#000000;stroke-linecap:butt;stroke-linejoin:miter;stroke-miterlimit:10.43299961;stroke-dasharray:none;stroke-dashoffset:0;stroke-opacity:1"><path
         id="path5496"
         d="m 472,394.25 0,0.02 0,0.03 0,0.01 0,0.02 0,0.01 -0.01,0.02 0,0.01 -0.01,0.02 -0.01,0.02 -0.01,0.02 -0.01,0.02 -0.02,0.03 -0.01,0.02 -0.02,0.03 -0.02,0.03 -0.03,0.03 -0.02,0.03 -0.03,0.04 -0.02,0.02 -0.01,0.02 -0.02,0.02 -0.02,0.02 -0.02,0.02 -0.02,0.03 -0.02,0.02 -0.02,0.02 -0.02,0.03 -0.03,0.02 -0.02,0.03 -0.03,0.03 -0.03,0.03 -0.02,0.03 -0.03,0.03 -0.03,0.03 -0.03,0.03 -0.03,0.03 -0.04,0.04 -0.03,0.03 -0.04,0.04 -0.03,0.03 -0.04,0.04 -0.04,0.04 c -6.22,6.28 -7.81,15.69 -7.81,23.31 0,8.67 1.89,17.35 8.01,23.56 0.64,0.61 0.64,0.71 0.64,0.86 0,0.35 -0.18,0.49 -0.48,0.49 -0.5,0 -4.98,-3.38 -7.92,-9.7 -2.55,-5.49 -3.14,-11.02 -3.14,-15.21 0,-3.89 0.54,-9.9 3.28,-15.54 2.98,-6.13 7.28,-9.36 7.78,-9.36 0.3,0 0.48,0.14 0.48,0.5 z"
         inkscape:connector-curvature="0"
         style="fill:#000000;stroke-width:0" /><path
         id="path5498"
         d="m 489.93,421.95 0.2,1.28 3.39,13.56 c 0.44,1.74 0.55,1.89 2.69,1.89 l 4.78,0 c 4.14,0 6.78,-1.34 6.78,-4.78 0,-1.95 -1,-6.23 -2.93,-8.03 -2.5,-2.23 -5.49,-2.64 -7.69,-2.64 l -7.02,0 -0.2,-1.28 8.47,0 c 7.08,0 14,5.17 14,10.75 0,3.84 -3.28,7.53 -9.81,7.53 l -16.14,0 c -0.96,0 -1.5,0 -1.5,-0.95 0,-0.6 0.45,-0.6 1.45,-0.6 0.64,0 1.55,-0.04 2.14,-0.09 0.8,-0.11 1.09,-0.25 1.09,-0.8 0,-0.2 -0.04,-0.36 -0.2,-0.95 l -6.67,-26.75 c -0.5,-1.95 -0.6,-2.34 -4.53,-2.34 -0.85,0 -1.39,0 -1.39,-0.96 0,-0.59 0.59,-0.59 0.73,-0.59 1.41,0 4.94,0.16 6.33,0.16 1.05,0 2.14,-0.07 3.19,-0.07 1.11,0 2.2,-0.09 3.25,-0.09 0.34,0 0.98,0 0.98,1 0,0.55 -0.44,0.55 -1.39,0.55 -1.84,0 -3.23,0 -3.23,0.89 0,0.29 0.09,0.54 0.14,0.84 z"
         inkscape:connector-curvature="0"
         style="fill:#000000;stroke-width:0" /><path
         id="path5500"
         d="m 563.6,407.79 0,0 -0.02,0 -0.02,0 -0.03,0 -0.03,0 -0.03,0 -0.03,-0.01 -0.04,0 -0.04,0 -0.04,-0.01 -0.04,0 -0.04,0 -0.05,-0.01 -0.09,-0.01 -0.09,0 -0.09,-0.01 -0.04,-0.01 -0.05,0 -0.04,-0.01 -0.04,0 -0.04,0 -0.04,-0.01 -0.03,0 -0.04,0 -0.03,0 -0.02,-0.01 -0.03,0 -0.02,0 -0.01,0 -0.01,0 -0.01,0 0,0 c -3.94,0 -6.58,3.87 -8.27,6.47 -0.5,0.84 -1.85,2.89 -2.41,3.73 1.21,2.69 4.55,8.88 10.47,8.88 0.34,0 0.8,0 1.34,-0.16 0,1.3 -0.04,1.34 -0.13,1.45 -0.37,0.1 -1.12,0.14 -1.55,0.14 -6.33,0 -10.02,-6.07 -11.22,-8.56 -1.98,3.03 -2.69,4.14 -4.53,5.67 -3.03,2.64 -5.78,2.89 -7.02,2.89 -5.53,0 -8.72,-5.57 -8.72,-11.29 l 1.1,0 c 0,4.92 2.78,9.26 6.92,9.26 3.94,0 6.58,-3.89 8.27,-6.48 0.5,-0.84 1.84,-2.89 2.38,-3.74 l 0,0 c -1.18,-2.68 -4.53,-8.87 -10.45,-8.87 -4.84,0 -7.12,5.28 -7.12,9.83 l -1.1,0 c 0,-5.6 3.08,-11.27 8.57,-11.27 6.32,0 10.01,6.08 11.2,8.56 2,-3.03 2.7,-4.12 4.55,-5.67 3.03,-2.64 5.76,-2.89 7.01,-2.89 0.59,0 1.39,0.1 1.84,0.21 z"
         inkscape:connector-curvature="0"
         style="fill:#000000;stroke-width:0" /><path
         id="path5502"
         d="m 596.68,394.25 0,0.02 -0.01,0.03 0,0.01 0,0.02 0,0.01 -0.01,0.02 0,0.01 -0.01,0.02 -0.01,0.02 -0.01,0.02 -0.01,0.02 -0.01,0.03 -0.02,0.02 -0.02,0.03 -0.02,0.03 -0.02,0.03 -0.03,0.03 -0.03,0.04 -0.02,0.02 -0.01,0.02 -0.02,0.02 -0.02,0.02 -0.02,0.02 -0.02,0.03 -0.02,0.02 -0.02,0.02 -0.02,0.03 -0.03,0.02 -0.02,0.03 -0.03,0.03 -0.02,0.03 -0.03,0.03 -0.03,0.03 -0.03,0.03 -0.03,0.03 -0.03,0.03 -0.04,0.04 -0.03,0.03 -0.03,0.04 -0.04,0.03 -0.04,0.04 -0.04,0.04 c -6.22,6.28 -7.81,15.69 -7.81,23.31 0,8.67 1.89,17.35 8.01,23.56 0.65,0.61 0.65,0.71 0.65,0.86 0,0.35 -0.19,0.49 -0.49,0.49 -0.5,0 -4.98,-3.38 -7.92,-9.7 -2.55,-5.49 -3.14,-11.02 -3.14,-15.21 0,-3.89 0.55,-9.9 3.28,-15.54 2.99,-6.13 7.28,-9.36 7.78,-9.36 0.3,0 0.49,0.14 0.49,0.5 z"
         inkscape:connector-curvature="0"
         style="fill:#000000;stroke-width:0" /><path
         id="path5504"
         d="m 630.43,445.42 0.12,0.17 0.12,0.17 0.12,0.16 0.12,0.15 0.11,0.15 0.12,0.15 0.12,0.14 0.12,0.13 0.12,0.13 0.12,0.12 0.12,0.12 0.12,0.11 0.12,0.11 0.12,0.1 0.13,0.09 0.12,0.09 0.13,0.09 0.13,0.08 0.13,0.08 0.13,0.07 0.14,0.06 0.14,0.06 0.14,0.06 0.15,0.05 0.14,0.05 0.16,0.04 0.15,0.04 0.16,0.03 0.16,0.03 0.17,0.02 0.17,0.02 0.17,0.02 c 0.43,0.03 0.8,0.06 0.8,0.76 0,0.11 -0.06,0.49 -0.49,0.49 -0.84,0 -1.92,-0.14 -2.79,-0.14 -1.11,0 -2.58,0.14 -3.61,0.14 -0.33,0 -0.7,-0.11 -0.7,-0.77 0,-0.45 0.48,-0.48 0.62,-0.48 1.11,-0.08 1.42,-0.49 1.42,-1.02 0,-0.48 -0.23,-0.83 -0.62,-1.39 l -11.42,-16.86 -3.18,17.8 c -0.06,0.31 -0.06,0.39 -0.06,0.53 0,0.94 1.94,0.94 2.19,0.94 0.59,0 1.05,0 1.05,0.76 0,0.04 -0.03,0.49 -0.6,0.49 -1.01,0 -3.48,-0.14 -4.5,-0.14 -0.86,0 -2.98,0.14 -3.86,0.14 -0.31,0 -0.7,-0.11 -0.7,-0.77 0,-0.48 0.48,-0.48 0.88,-0.48 1.95,0 1.98,-0.22 2.15,-1.13 l 3.8,-21.17 c 0.14,-0.73 0.17,-0.95 0.84,-0.95 0.66,0 0.83,0.25 1.19,0.76 z"
         inkscape:connector-curvature="0"
         style="fill:#000000;stroke-width:0" /><polyline
         id="polyline5506"
         points="606,418 638.16,418 638.16,420.04 606,420.04 "
         style="fill:#000000;fill-rule:nonzero;stroke-width:0" /><path
         id="path5508"
         d="m 629.35,395.38 -1.18,0 c -0.1,-0.76 -0.45,-2.83 -0.91,-3.17 -0.26,-0.2 -2.95,-0.2 -3.44,-0.2 l -6.42,0 c 3.66,3.23 4.88,4.2 6.97,5.84 2.58,2.06 4.98,4.22 4.98,7.53 0,4.22 -3.68,6.8 -8.15,6.8 -4.31,0 -7.25,-3.03 -7.25,-6.23 0,-1.79 1.5,-1.96 1.86,-1.96 0.83,0 1.84,0.6 1.84,1.85 0,0.62 -0.25,1.84 -2.06,1.84 1.08,2.47 3.45,3.23 5.09,3.23 3.49,0 5.3,-2.7 5.3,-5.53 0,-3.03 -2.16,-5.43 -3.28,-6.68 l -8.39,-8.3 c -0.36,-0.31 -0.36,-0.39 -0.36,-1.36 l 14.36,0 z"
         inkscape:connector-curvature="0"
         style="fill:#000000;stroke-width:0" /><path
         id="path5510"
         d="m 658.07,418.65 0,0.37 -0.01,0.39 -0.01,0.39 -0.01,0.41 -0.04,0.84 -0.06,0.88 -0.08,0.92 -0.11,0.95 -0.13,0.97 -0.17,1.01 -0.19,1.02 -0.23,1.03 -0.27,1.05 -0.3,1.06 -0.35,1.07 -0.4,1.07 -0.21,0.53 -0.22,0.53 -0.24,0.53 -0.25,0.53 c -2.99,6.12 -7.27,9.36 -7.77,9.36 -0.29,0 -0.5,-0.19 -0.5,-0.49 0,-0.15 0,-0.25 0.94,-1.15 4.89,-4.92 7.74,-12.85 7.74,-23.27 0,-8.51 -1.85,-17.28 -8.04,-23.56 -0.64,-0.59 -0.64,-0.7 -0.64,-0.84 0,-0.3 0.21,-0.5 0.5,-0.5 0.5,0 4.97,3.39 7.93,9.71 2.53,5.47 3.12,11 3.12,15.19 z"
         inkscape:connector-curvature="0"
         style="fill:#000000;stroke-width:0" /><path
         id="path5512"
         d="m 680.59,430.54 -1.18,0 c -0.1,-0.76 -0.46,-2.83 -0.91,-3.17 -0.27,-0.2 -2.95,-0.2 -3.44,-0.2 l -6.42,0 c 3.66,3.23 4.88,4.2 6.97,5.84 2.58,2.06 4.98,4.22 4.98,7.53 0,4.22 -3.68,6.8 -8.15,6.8 -4.31,0 -7.25,-3.03 -7.25,-6.23 0,-1.79 1.5,-1.96 1.86,-1.96 0.83,0 1.84,0.6 1.84,1.85 0,0.62 -0.25,1.84 -2.06,1.84 1.08,2.47 3.45,3.23 5.09,3.23 3.49,0 5.3,-2.7 5.3,-5.53 0,-3.03 -2.16,-5.43 -3.28,-6.68 l -8.39,-8.3 c -0.36,-0.31 -0.36,-0.39 -0.36,-1.36 l 14.36,0 z"
         inkscape:connector-curvature="0"
         style="fill:#000000;stroke-width:0" /><path
         id="path5514"
         d="m 705.51,442.16 3.4,0 c 0.71,0 1.16,0 1.16,0.77 0,0.48 -0.45,0.48 -1.08,0.48 l -3.25,0 c 0.81,4.43 1.08,6.04 1.36,7.05 0.17,0.77 0.94,1.5 1.78,1.5 0.03,0 0.97,0 1.64,-0.42 -1.43,-0.45 -1.53,-1.72 -1.53,-1.92 0,-0.77 0.6,-1.28 1.39,-1.28 0.94,0 1.99,0.79 1.99,2.12 0,1.59 -1.71,2.47 -3.49,2.47 -1.53,0 -3.23,-0.88 -4.18,-2.61 -0.69,-1.3 -0.97,-2.86 -1.71,-6.91 l -2.75,0 c -0.7,0 -1.15,0 -1.15,-0.76 0,-0.49 0.45,-0.49 1.07,-0.49 l 2.58,0 c -0.03,-0.21 -2.22,-12.75 -3.06,-16.48 -0.17,-0.77 -0.77,-3.41 -2.44,-3.41 -0.03,0 -0.87,0 -1.53,0.41 1.42,0.45 1.53,1.72 1.53,1.92 0,0.77 -0.59,1.28 -1.39,1.28 -0.94,0 -1.98,-0.79 -1.98,-2.12 0,-1.56 1.64,-2.47 3.37,-2.47 2.24,0 3.77,2.3 4.19,3.06 1.25,2.35 2.05,6.63 2.12,7.05 z"
         inkscape:connector-curvature="0"
         style="fill:#000000;stroke-width:0" /><polyline
         id="polyline5516"
         points="691,418 714.4,418 714.4,420.04 691,420.04 "
         style="fill:#000000;fill-rule:nonzero;stroke-width:0" /><path
         id="path5518"
         d="m 710.59,395.38 -1.18,0 c -0.1,-0.76 -0.46,-2.83 -0.91,-3.17 -0.27,-0.2 -2.95,-0.2 -3.44,-0.2 l -6.42,0 c 3.66,3.23 4.88,4.2 6.97,5.84 2.58,2.06 4.98,4.22 4.98,7.53 0,4.22 -3.68,6.8 -8.15,6.8 -4.31,0 -7.25,-3.03 -7.25,-6.23 0,-1.79 1.5,-1.96 1.86,-1.96 0.83,0 1.84,0.6 1.84,1.85 0,0.62 -0.25,1.84 -2.06,1.84 1.08,2.47 3.45,3.23 5.09,3.23 3.49,0 5.3,-2.7 5.3,-5.53 0,-3.03 -2.16,-5.43 -3.28,-6.68 l -8.39,-8.3 c -0.36,-0.31 -0.36,-0.39 -0.36,-1.36 l 14.36,0 z"
         inkscape:connector-curvature="0"
         style="fill:#000000;stroke-width:0" /><path
         id="path5520"
         d="m 735.11,418.65 0,0.37 -0.01,0.39 -0.01,0.39 -0.01,0.41 -0.04,0.84 -0.06,0.88 -0.08,0.92 -0.11,0.95 -0.13,0.97 -0.17,1.01 -0.19,1.02 -0.23,1.03 -0.27,1.05 -0.31,1.06 -0.34,1.07 -0.4,1.07 -0.21,0.53 -0.22,0.53 -0.24,0.53 -0.25,0.53 c -2.99,6.12 -7.27,9.36 -7.77,9.36 -0.29,0 -0.5,-0.19 -0.5,-0.49 0,-0.15 0,-0.25 0.94,-1.15 4.89,-4.92 7.73,-12.85 7.73,-23.27 0,-8.51 -1.84,-17.28 -8.03,-23.56 -0.64,-0.59 -0.64,-0.7 -0.64,-0.84 0,-0.3 0.21,-0.5 0.5,-0.5 0.5,0 4.97,3.39 7.92,9.71 2.54,5.47 3.13,11 3.13,15.19 z"
         inkscape:connector-curvature="0"
         style="fill:#000000;stroke-width:0" /></g>  </g>
</svg>
